{"title":"Judaai Video Song - Falak - I Love Ny - Sunny Deol, Kangana Rana","uid":12254010,"size":27307232,"categoryP":"video","categoryS":"music_videos","magnet":"?xt=urn:btih:eb627c10a405fa71178831f11a7b42e4b51e8955&amp;dn=Judaai+Video+Song+-+Falak+-+I+Love+Ny+-+Sunny+Deol%2C+Kangana+Rana&amp;tr=udp%3A%2F%2Ftracker.openbittorrent.com%3A80&amp;tr=udp%3A%2F%2Fopen.demonii.com%3A1337&amp;tr=udp%3A%2F%2Ftracker.coppersurfer.tk%3A6969&amp;tr=udp%3A%2F%2Fexodus.desync.com%3A6969","seeders":0,"leechers":0,"uploader":"Aainul","files":3,"time":1440031794,"description":"Seeding From High Speed Seedbox\n\nJudaai Video Song - Falak - I Love Ny - Sunny Deol, Kangana Ranaut HD 720p - truHD HEVC\n\nSource: WEB-DL\n\nSource File Info:\n\nGeneral\nFormat : MPEG-4\nFormat profile : Base Media / Version 2\nCodec ID : mp42\nFile size : 47.1 MiB\nDuration : 3mn 45s\nOverall bit rate mode : Variable\nOverall bit rate : 1 757 Kbps\nEncoded date : UTC 2015-07-20 07:47:06\nTagged date : UTC 2015-07-20 07:47:06\n\n\nVideo\nID : 1\nFormat : AVC\nFormat/Info : Advanced Video Codec\nFormat profile : &lt;a class=&quot;__cf_email__&quot; href=&quot;/cdn-cgi/l/email-protection&quot; data-cfemail=&quot;367e5f515e767a051807&quot;&gt;[email&amp;#160;protected]&lt;/a&gt;&lt;script data-cfhash='f9e31' type=&quot;text/javascript&quot;&gt;\n/* &lt;![CDATA[ */!function(){try{var t=&quot;currentScript&quot;in document?document.currentScript:function(){for(var t=document.getElementsByTagName(&quot;script&quot;),e=t.length;e--;)if(t[e].getAttribute(&quot;data-cfhash&quot;))return t[e]}();if(t&amp;&amp;t.previousSibling){var e,r,n,i,c=t.previousSibling,a=c.getAttribute(&quot;data-cfemail&quot;);if(a){for(e=&quot;&quot;,r=parseInt(a.substr(0,2),16),n=2;a.length-n;n+=2)i=parseInt(a.substr(n,2),16)^r,e+=String.fromCharCode(i);e=document.createTextNode(e),c.parentNode.replaceChild(e,c)}t.parentNode.removeChild(t);}}catch(u){}}()/* ]]&gt; */&lt;/script&gt;\nFormat settings, CABAC : Yes\nFormat settings, ReFrames : 1 frame\nCodec ID : avc1\nCodec ID/Info : Advanced Video Coding\nDuration : 3mn 45s\nBit rate : 1 563 Kbps\nMaximum bit rate : 5 555 Kbps\nWidth : 1 280 pixels\nHeight : 720 pixels\nDisplay aspect ratio : 16:9\nFrame rate mode : Constant\nFrame rate : 25.000 fps\nColor space : YUV\nChroma subsampling : 4:2:0\nBit depth : 8 bits\nScan type : Progressive\nBits/(Pixel*Frame) : 0.068\nStream size : 41.9 MiB (89%)\nTagged date : UTC 2015-07-20 07:47:08\n\nAudio\nID : 2\nFormat : AAC\nFormat/Info : Advanced Audio Codec\nFormat profile : LC\nCodec ID : 40\nDuration : 3mn 45s\nBit rate mode : Variable\nBit rate : 192 Kbps\nMaximum bit rate : 204 Kbps\nChannel(s) : 2 channels\nChannel positions : Front: L R\nSampling rate : 44.1 KHz\nCompression mode : Lossy\nStream size : 5.15 MiB (11%)\nTitle : IsoMedia File Produced by Google, 5-11-2011\nLanguage : English\nEncoded date : UTC 2015-07-20 07:47:07\nTagged date : UTC 2015-07-20 07:47:08\n\n\nEncoder: truHD HEVC Encoding Team\n\nEncoded File Info:\n\nGeneral\nFormat : MPEG-4\nFormat profile : Base Media / Version 2\nCodec ID : mp42\nFile size : 25.8 MiB\nDuration : 3mn 45s\nOverall bit rate mode : Variable\nOverall bit rate : 962 Kbps\nEncoded date : UTC 2036-02-06 06:28:16\nTagged date : UTC 2036-02-06 06:28:16\nWriting application : HandBrake 0.10.2 2015060900\n\nVideo\nID : 1\nFormat : HEVC\nFormat/Info : High Efficiency Video Coding\nCodec ID : hev1\nCodec ID/Info : High Efficiency Video Coding\nDuration : 3mn 45s\nBit rate : 797 Kbps\nWidth : 1 280 pixels\nHeight : 588 pixels\nDisplay aspect ratio : 2.2:1\nFrame rate mode : Constant\nFrame rate : 25.000 fps\nBits/(Pixel*Frame) : 0.042\nStream size : 21.4 MiB (83%)\nEncoded date : UTC 2036-02-06 06:28:16\nTagged date : UTC 2036-02-06 06:28:16\n\nAudio\nID : 2\nFormat : AAC\nFormat/Info : Advanced Audio Codec\nFormat profile : LC\nCodec ID : 40\nDuration : 3mn 45s\nBit rate mode : Variable\nBit rate : 160 Kbps\nChannel(s) : 2 channels\nChannel positions : Front: L R\nSampling rate : 44.1 KHz\nCompression mode : Lossy\nStream size : 4.28 MiB (17%)\nTitle : Stereo\nLanguage : English\nEncoded date : UTC 2036-02-06 06:28:16\nTagged date : UTC 2036-02-06 06:28:16\n\n\nScreenShots:\n &lt;a href=&quot;\nhttps://yuq.me/users/36/459/0TzelYo31U.jpg&quot; rel=&quot;nofollow&quot; target=&quot;_NEW&quot;&gt;\nhttps://yuq.me/users/36/459/0TzelYo31U.jpg&lt;/a&gt;\n\n\nLike Us On FB And Request Accepted @\n\nKickAssTorrents: https://kat.cr/user/Aainul/\nGloTorrents: https://glodls.to/user/Aainul\nThePirateBay: https://thepiratebay.vg/user/Aainul/\n1337x Torrents: http://1337.to/user/Aainul/\n\n\nNote: All Videos Uploaded By Me Are For Review Purpose. If You Like IT, Google IT And Buy IT - Thanks\n\n\nKing Regards\ntruHD HEVC Team\n\nShare Among Friends And Relatives","torrent":{"xt":"urn:btih:eb627c10a405fa71178831f11a7b42e4b51e8955","amp;dn":"Judaai+Video+Song+-+Falak+-+I+Love+Ny+-+Sunny+Deol%2C+Kangana+Rana","amp;tr":["udp%3A%2F%2Ftracker.openbittorrent.com%3A80","udp%3A%2F%2Fopen.demonii.com%3A1337","udp%3A%2F%2Ftracker.coppersurfer.tk%3A6969","udp%3A%2F%2Fexodus.desync.com%3A6969"],"infoHash":"eb627c10a405fa71178831f11a7b42e4b51e8955","infoHashBuffer":{"type":"Buffer","data":[235,98,124,16,164,5,250,113,23,136,49,241,26,123,66,228,181,30,137,85]},"announce":[],"urlList":[]}}